# xmcd
#
# Track frame offsets:
#       150
#       13041
#       26111
#       39676
#       52624
#       66060
#       79547
#       93604
#       112939
#       126916
#       140203
#       154397
#       169020
#       183259
#       197198
#       210177
#       219581
#
# Disc length: 3145 seconds
#
# Revision: 2
# Processed by: cddbd v1.5PL3 Copyright (c) Steve Scherf et al.
# Submitted via: WhereIsIt 3.58
#
DISCID=ea0c4711
DTITLE=Leadbelly - Nothing But The Blues - Death Letter Blues - CD 1
DYEAR=1900
DGENRE=Blues
TTITLE0=Good Morning Blues
TTITLE1=Packin' Trunk
TTITLE2=New York City
TTITLE3=My Baby Quit Me
TTITLE4=Roberta Pt 1
TTITLE5=Fort Worth And Dallas Blues
TTITLE6=TB Woman Blues
TTITLE7=John Hardy
TTITLE8=The Red Cross Store Blues
TTITLE9=Death Letter Blues Pt 1
TTITLE10=I'm On My Last Go Round
TTITLE11=The Borgeois Blues
TTITLE12=Easy Rider
TTITLE13=Four Day Worry Blues
TTITLE14=Ox Drivin' Blues
TTITLE15=I'm Sorry Mama
TTITLE16=Irene Goodnight
EXTD=
EXTT0=
EXTT1=
EXTT2=
EXTT3=
EXTT4=
EXTT5=
EXTT6=
EXTT7=
EXTT8=
EXTT9=
EXTT10=
EXTT11=
EXTT12=
EXTT13=
EXTT14=
EXTT15=
EXTT16=
PLAYORDER=
